HIERARCHY
ROOT joint_0
{
	OFFSET 0.000000 0.000000 0.000000
	CHANNELS 6 Xposition Yposition Zposition Zrotation Yrotation Xrotation 
	JOINT joint_1
	{
		OFFSET 11.612000 -0.419000 106.198000
		CHANNELS 3 Zrotation Yrotation Xrotation
		JOINT joint_2
		{
			OFFSET -1.708000 -1.022000 97.564090
			CHANNELS 3 Zrotation Yrotation Xrotation
			JOINT joint_3
			{
				OFFSET -4.121000 -1.538000 97.375000
				CHANNELS 3 Zrotation Yrotation Xrotation
				JOINT joint_4
				{
					OFFSET 5.442000 -2.123000 132.795900
					CHANNELS 3 Zrotation Yrotation Xrotation
					JOINT joint_5
					{
						OFFSET 21.935000 0.195000 82.975100
						CHANNELS 3 Zrotation Yrotation Xrotation
						End Site
						{
							OFFSET 0.000000 0.000000 0.000000
						}
					}
				}
				JOINT joint_6
				{
					OFFSET 4.262000 -30.048000 73.899900
					CHANNELS 3 Zrotation Yrotation Xrotation
					JOINT joint_7
					{
						OFFSET 9.731000 -136.810010 -21.963010
						CHANNELS 3 Zrotation Yrotation Xrotation
						JOINT joint_8
						{
							OFFSET 33.360000 -35.709000 -267.597900
							CHANNELS 3 Zrotation Yrotation Xrotation
							JOINT joint_9
							{
								OFFSET 36.156000 -29.759000 -240.558040
								CHANNELS 3 Zrotation Yrotation Xrotation
								End Site
								{
									OFFSET 0.000000 0.000000 0.000000
								}
							}
						}
					}
				}
				JOINT joint_10
				{
					OFFSET 2.027000 27.734000 74.914920
					CHANNELS 3 Zrotation Yrotation Xrotation
					JOINT joint_11
					{
						OFFSET -5.183000 136.784000 -23.604980
						CHANNELS 3 Zrotation Yrotation Xrotation
						JOINT joint_12
						{
							OFFSET 29.806000 37.229000 -267.809940
							CHANNELS 3 Zrotation Yrotation Xrotation
							JOINT joint_13
							{
								OFFSET 36.890000 46.524990 -237.772030
								CHANNELS 3 Zrotation Yrotation Xrotation
								End Site
								{
									OFFSET 0.000000 0.000000 0.000000
								}
							}
						}
					}
				}
			}
		}
	}
	JOINT joint_14
	{
		OFFSET -7.290000 -102.873990 -124.314940
		CHANNELS 3 Zrotation Yrotation Xrotation
		JOINT joint_15
		{
			OFFSET -15.466000 -19.909010 -438.533020
			CHANNELS 3 Zrotation Yrotation Xrotation
			JOINT joint_16
			{
				OFFSET -26.899000 -18.922000 -464.797000
				CHANNELS 3 Zrotation Yrotation Xrotation
				JOINT joint_17
				{
					OFFSET 179.329000 -12.011000 -84.174000
					CHANNELS 3 Zrotation Yrotation Xrotation
					End Site
					{
						OFFSET 0.000000 0.000000 0.000000
					}
				}
			}
		}
	}
	JOINT joint_18
	{
		OFFSET -6.225000 101.546000 -125.479980
		CHANNELS 3 Zrotation Yrotation Xrotation
		JOINT joint_19
		{
			OFFSET -13.973000 7.996000 -438.963010
			CHANNELS 3 Zrotation Yrotation Xrotation
			JOINT joint_20
			{
				OFFSET -44.294000 5.716000 -463.813970
				CHANNELS 3 Zrotation Yrotation Xrotation
				JOINT joint_21
				{
					OFFSET 178.505000 -4.689000 -85.139000
					CHANNELS 3 Zrotation Yrotation Xrotation
					End Site
					{
						OFFSET 0.000000 0.000000 0.000000
					}
				}
			}
		}
	}
}
MOTION
Frames: 7
Frame Time: 0.016667
-3077.458252 831.256104 1131.014038 -4.090175 -1.422874 1.319752 -1.394139 12.076352 -0.521550 -1.608837 -2.199012 0.056723 -1.543957 2.086812 -0.029316 -1.288567 -2.213130 4.851333 0.000000 0.000000 0.000000 -3.547665 -17.375859 0.960684 -3.565467 -9.965767 -2.443368 12.442381 -81.387399 23.321787 0.000000 0.000000 0.000000 0.773041 -11.886583 3.221832 6.708580 -7.136053 4.070022 -9.323215 -87.162979 -27.942213 0.000000 0.000000 0.000000 -2.084880 -3.268457 -3.075042 -2.863207 11.215289 -0.878460 -2.523759 -5.543308 -1.532887 0.000000 0.000000 0.000000 2.942017 -3.609986 2.941524 3.250623 13.508854 1.218236 3.181350 -1.664555 1.429436 0.000000 0.000000 0.000000 
-3077.590820 824.532410 1129.869995 -3.554951 -1.700487 1.525727 -1.377255 12.014400 -0.295370 -1.540073 -2.201987 -0.003856 -1.466084 2.087131 0.005889 -1.227305 -2.289599 4.614060 0.000000 0.000000 0.000000 -3.466281 -17.612465 1.156615 -3.636899 -10.062442 -2.689725 12.340354 -81.350897 23.231825 0.000000 0.000000 0.000000 0.963645 -12.252316 2.845792 6.223752 -7.479265 3.997673 -9.677656 -86.153284 -26.721315 0.000000 0.000000 0.000000 -2.257373 -3.066597 -2.833490 -3.026704 11.601822 -1.079693 -2.687974 -5.849436 -1.628145 0.000000 0.000000 0.000000 2.768346 -3.602492 3.010179 3.078458 13.917132 1.426357 3.052472 -1.776288 1.363303 0.000000 0.000000 0.000000 
-3077.812012 817.825012 1128.993042 -3.016823 -1.966628 1.709579 -1.350603 11.981364 -0.007067 -1.467273 -2.206826 -0.066390 -1.384413 2.088600 0.041020 -1.160815 -2.376034 4.360733 0.000000 0.000000 0.000000 -3.390162 -17.850464 1.317962 -3.672804 -10.135394 -2.891929 12.265496 -81.332076 23.175268 0.000000 0.000000 0.000000 1.115591 -12.518427 2.504505 5.665388 -7.754466 3.824661 -10.069086 -85.289264 -25.192307 0.000000 0.000000 0.000000 -2.409348 -2.873441 -2.659720 -3.180619 12.047310 -1.119540 -2.829329 -6.190009 -1.714976 0.000000 0.000000 0.000000 2.593336 -3.637972 3.098112 2.905977 14.334443 1.633646 2.926815 -1.786181 1.301313 0.000000 0.000000 0.000000 
-3077.981201 811.354919 1128.651001 -2.506136 -2.204539 1.859047 -1.309505 11.968487 0.350097 -1.383602 -2.208042 -0.114630 -1.292703 2.086007 0.061060 -1.082623 -2.463701 4.071431 0.000000 0.000000 0.000000 -3.323543 -18.075244 1.346561 -3.638019 -10.154289 -2.917943 12.221812 -81.145425 23.155820 0.000000 0.000000 0.000000 1.119804 -12.598645 2.310476 5.054297 -7.902750 3.441520 -10.459729 -84.673665 -23.370644 0.000000 0.000000 0.000000 -2.583837 -2.665028 -2.631613 -3.365511 12.330103 -0.842719 -2.983165 -6.408762 -1.800410 0.000000 0.000000 0.000000 2.428917 -3.675162 3.240920 2.745722 14.656853 1.768606 2.807262 -1.591925 1.247961 0.000000 0.000000 0.000000 
-3078.163818 805.019348 1128.706055 -2.002796 -2.423815 1.975547 -1.254072 11.982135 0.791635 -1.290272 -2.210082 -0.157845 -1.191823 2.081672 0.072095 -0.992468 -2.556056 3.743680 0.000000 0.000000 0.000000 -3.263601 -18.296113 1.282478 -3.553781 -10.132750 -2.828440 12.203195 -80.877276 23.180309 0.000000 0.000000 0.000000 1.021954 -12.531763 2.209681 4.373924 -7.962966 2.889001 -10.868112 -84.278012 -21.206059 0.000000 0.000000 0.000000 -2.753571 -2.452543 -2.722257 -3.557637 12.586396 -0.297953 -3.126927 -6.602153 -1.879983 0.000000 0.000000 0.000000 2.276782 -3.739930 3.414635 2.598840 14.947097 1.882806 2.701995 -1.256327 1.205046 0.000000 0.000000 0.000000 
-3078.487305 798.633911 1129.024048 -1.520554 -2.614652 2.098370 -1.205661 11.993085 1.210467 -1.200821 -2.205080 -0.212511 -1.093111 2.073641 0.094929 -0.919209 -2.643777 3.478094 0.000000 0.000000 0.000000 -3.193592 -18.503922 1.207573 -3.434900 -10.092638 -2.699327 12.206131 -80.615673 23.170594 0.000000 0.000000 0.000000 0.913018 -12.424577 2.167867 3.775538 -8.006291 2.337018 -11.212314 -83.904948 -19.227908 0.000000 0.000000 0.000000 -2.926482 -2.230318 -2.779455 -3.743845 12.729742 0.193366 -3.270971 -6.720721 -1.954761 0.000000 0.000000 0.000000 2.063484 -3.829736 3.656329 2.394236 15.196528 1.885297 2.520611 -0.771974 1.131480 0.000000 0.000000 0.000000 
-3079.056152 792.019287 1129.569946 -1.080214 -2.771870 2.255030 -1.177312 11.990447 1.528356 -1.121190 -2.190591 -0.292641 -1.000311 2.059805 0.146329 -0.888426 -2.720084 3.361455 0.000000 0.000000 0.000000 -3.099499 -18.693324 1.175439 -3.270604 -10.041808 -2.554873 12.238665 -80.396719 23.041439 0.000000 0.000000 0.000000 0.844972 -12.335348 2.176159 3.340561 -8.066868 1.870648 -11.451820 -83.422137 -17.762707 0.000000 0.000000 0.000000 -3.111086 -2.003179 -2.683980 -3.917890 12.703685 0.391217 -3.425839 -6.725638 -2.026740 0.000000 0.000000 0.000000 1.719340 -3.937700 4.014366 2.064289 15.392938 1.685271 2.174736 -0.098697 0.988138 0.000000 0.000000 0.000000 
